<svg xmlns="http://www.w3.org/2000/svg" xmlns:xlink="http://www.w3.org/1999/xlink" data-name="Layer 1" viewBox="0 0 4680 3120"><defs><clipPath id="f"><path fill="#720029" d="M2911.16 1169.89s-27.57-13.79-36.64-37 17.41-21 7.62-52.61-10.89-60.59 22.85-78 89.26-18.14 118.29 28.3c0 0 46.44-21.4 73.29 12.34s-.37 91.07 26.12 116.47 58.41 39.18 55.15 83.45 12.34 67.84 66.4 79.82 60.41 150.93-54.43 168.35-179 6.87-188.3-68.68-1.09-54.32-15.24-112.55-38.64-119.21-75.11-139.89Z" class="color001b72 svgShape"/></clipPath><clipPath id="g"><path fill="#fdb2cd" d="M2917.15 1110s-38.1 118.64 0 123.54 30.54 16.64 23.3 36.8c-6.09 17-40.76 15.36-40.76 15.36l-4.85 31.65 18.77 32.39 67.49 10.34 32.05-64.39s-25.52-11.26-20.9-47.45 9-36.47 20.14-40.82 18.23-29.66 7.89-38.64-5.71-49.26-5.71-49.26-11.43-9.52-44.36 0-53.06-9.52-53.06-9.52Z" class="colorfdb2d0 svgShape"/></clipPath><clipPath id="h"><path fill="#fdb2cd" d="M2871.55 1287.23s-18.66 7-33.48 14.53-108.16 55.62-128.56 54.78-138.51-105.46-157.16-119.25-126.33-41.36-131.55 0 93.17 13.79 113.66 39.5 128.19 142.35 167.69 140.12 151.3-49.19 151.3-49.19Z" class="colorfdb2d0 svgShape"/></clipPath><clipPath id="i"><path fill="#12b4d8" d="M2927.86 1654.75c26.12 0 93.47-30 105.52-11.76s51.89 48 58.42 136.84 7.84 189.42 7.84 189.42l273.36 46-7.84 72.5s-190.08-7.83-242-5.87-107.78-8.82-128.35-63.69c-31.12-83-44.78-160.68-44.78-160.68l-84.74 158.72s7.05 96-4.71 197.91-10.78 142.07-10.78 142.07h-77.4s-6.06-253.76-10-332.14 54.59-268.69 78.57-361Z" class="color122fd8 svgShape"/></clipPath><clipPath id="j"><path fill="#fdb2cd" d="m2874.52 1545.56-7.86 12.38s.45 8.52-9.56 46.84-16.11 58.35-16.11 58.35 88.32 32.12 192.39-20.14l-11.74-82.27Z" class="colorfdb2d0 svgShape"/></clipPath><clipPath id="k"><path fill="#ffffff" d="M2938.92 1338.46c40.3 6.58 60.54-31.87 71.87-47.27 20.35 5.23 51.73 18.59 51.73 18.59s6.58 40.69-9.69 86-35.06 121.46-31 167.37c0 0-58.7 52.31-155.18-5.23 0 0 1.75-74.19-3.68-98.6s-37.19-33.71-23.24-81 25.57-92.21 32-93.57 29.83-3.87 31.58 2.52 2.69 45.8 35.61 51.19Z" class="colorfff svgShape"/></clipPath><clipPath id="l"><path fill="#fdb2cd" d="M3061.23 1309.91s-28.34 4.93-28.95 45 61 105.94 67.14 123.19 25.25 34.49-33.58 67.14-125.34 60.37-138.28 81.92-56.67 102.87-15.4 97.33 50.51-81.93 50.51-81.93 69.61-25.87 125-50.51 92.71-39.42 82.54-76.38-79.42-192.21-108.98-205.76Z" class="colorfdb2d0 svgShape"/></clipPath><clipPath id="n"><path fill="#efffe3" d="M1987.45 2112.75v353.69h301.77l-31.74-358.59s-96.61-27.43-270.03 4.9Z" class="colore3ebff svgShape"/></clipPath><clipPath id="o"><path fill="#12b4d8" d="M1009 954.55c6.69-28.89 27.45-46.34 40.8-54.86-12.8-7.85-32.53-11.79-57.94 8-47.19 36.74-28.9 97.49 5.71 102.39 4.68.66 8.76 1 12.37 1.18a119.43 119.43 0 0 1-.94-56.71Z" class="color122fd8 svgShape"/></clipPath><clipPath id="q"><path fill="#12b4d8" d="M1242.48 1009.41s26.78-6.2 15.35-55.84-57.8-73.16-115.28-70.87-131.62 38.21-115.94 124.1 46.38 114.63 102.55 118.88Z" class="color122fd8 svgShape"/></clipPath><clipPath id="r"><path fill="#fdb2cd" d="M1241.5 973.16s24.17 103.2-13.06 134.56-50.29 0-49.64 24.16 13.06 56.83 13.06 56.83-37.23 28.09-67.93 0c0 0 11.76-31.35 3.6-56.17s13.71-49.32-13.39-64.34c0 0-40.5-36.58-16.66-56.5 0 0 86.87-8.49 93.73-55.85 0 0 26.45 19.92 50.29 17.31Z" class="colorfdb2d0 svgShape"/></clipPath><clipPath id="s"><path fill="#fdb2cd" d="M1301.33 1362.72s19.27 46.59 33.73 42.57 98-100.79 112.44-124.49 37.75-41.36 62.65-50.6 82.32-22.48 66.26 10-93.17 59.84-93.17 59.84-58.63 91.56-96.38 143-66.83 45.18-92 16.46c-28.11-32.12-43.37-71.08-43.37-71.08Z" class="colorfdb2d0 svgShape"/></clipPath><clipPath id="t"><path fill="url(#a)" d="m1091.27 1503.54-9.14 9.8s-1 12.08-15.68 38.86-48.33 81.32-52.25 133.58 34 243.63 34 243.63 109.08 61.4 208.36-5.23c0 0 20.25-116.26 26.78-203.79s-31.14-221.86-31.14-221.86Z"/></clipPath><clipPath id="u"><path fill="#ffffff" d="M1152.89 1173.69c13.83 1.9 31.66-8 31.66-8s-1.18 12.92 37 17.5 34.29 23.84 38.21 48.66 39.85 68.58 36.58 109.73-41.15 87.53-41.15 160.68c0 0-44.41 64-173.09 11.11 0 0-20.25-99.29-27.43-135.21s-49.64-161.84-15-176.94 84.47-10.5 87.53-32.08c0-.03 13.8 2.91 25.69 4.55Z" class="colorfff svgShape"/></clipPath><clipPath id="w"><path fill="#ffffff" d="M1058.83 1240.62c14.86 40.32 7 150.79 7 150.79s-69.67 24.82-97.54-21.34c0 0 18.72-74.46 34-121.49s28.3-44.19 34-40.44 17.21 18 22.54 32.48Z" class="colorfff svgShape"/></clipPath><linearGradient id="a" x1="1327.11" x2="1105.03" y1="1728.34" y2="1725.73" gradientUnits="userSpaceOnUse"><stop offset="0" stop-color="#fc3023" class="stopColorfc8323 svgShape"/><stop offset=".97" stop-color="#fc3023" class="stopColorfcaa23 svgShape"/></linearGradient><linearGradient id="c" x1="3573.07" x2="-463.55" y1="1407.41" y2="1372.14" gradientUnits="userSpaceOnUse"><stop offset="0" stop-color="#ffffff" class="stopColorfff svgShape"/><stop offset=".83" stop-color="#6ce4fe" class="stopColor6c82fe svgShape"/></linearGradient><linearGradient id="b" x1="3472.88" x2="1646.6" y1="1826.56" y2="1654.13" gradientUnits="userSpaceOnUse"><stop offset="0" stop-color="#ffffff" class="stopColorfff svgShape"/><stop offset="1" stop-color="#fd2618" class="stopColorfda118 svgShape"/></linearGradient><linearGradient id="d" x1="3478.09" x2="1651.82" y1="1771.32" y2="1598.88" xlink:href="#b"/><linearGradient id="e" x1="3483.31" x2="1657.03" y1="1716.07" y2="1543.64" xlink:href="#b"/><linearGradient id="m" x1="3112.71" x2="3285.8" y1="1878.26" y2="1878.26" xlink:href="#a"/><linearGradient id="p" x1="1006" x2="1066.62" y1="955.51" y2="955.51" xlink:href="#a"/><linearGradient id="v" x1="1105.19" x2="1208.59" y1="1215.5" y2="1215.5" xlink:href="#a"/><linearGradient id="x" x1="1046.86" x2="1077.12" y1="1305.26" y2="1305.26" xlink:href="#a"/><linearGradient id="y" x1="1703.88" x2="1794.02" y1="1293.13" y2="1331.45" xlink:href="#a"/><linearGradient id="z" x1="1587.12" x2="1670.73" y1="1209.44" y2="1285.65" xlink:href="#a"/></defs><path fill="#ffffff" d="M0 0h4680v3120H0z" class="colorfff svgShape"/><path fill="#8febff" d="M1274.38 2408.92h-.06a3.83 3.83 0 0 1-3.78-3.89l21-1466.61-777 20.81L658.77 2400a3.83 3.83 0 1 1-7.63.76L506.46 955.89a3.84 3.84 0 0 1 3.71-4.22l785.12-21a3.78 3.78 0 0 1 2.8 1.11 3.86 3.86 0 0 1 1.14 2.78l-21 1470.61a3.83 3.83 0 0 1-3.85 3.75Z" class="color8fb7ff svgShape"/><path fill="#efffe3" d="M691.21 2400.4 575.59 1011.33l694.57-20.02-43.81 1399.89-535.14 9.2z" class="colore3ebff svgShape"/><path fill="#b6f2ff" d="m631.44 1075.63 21.55 240.12 551.61-21.35 9.8-250.04-582.96 31.27zM665.2 1401.25l23.56 270.64 512.31-18.74 4.89-278.61-540.76 26.71zM698.96 1726.87l25.56 301.17 473.01-16.15v-307.17l-498.57 22.15zM723.86 2088.59a9 9 0 0 1-.14-17.9l473.66-7.84a9 9 0 0 1 .3 17.9L724 2088.59ZM726.87 2136.36a9 9 0 0 1-.12-17.9l468.81-6.27h.12a9 9 0 0 1 .12 17.9l-468.8 6.27ZM729.87 2184.14a9 9 0 0 1-.09-17.91l464-4.7h.09a9 9 0 0 1 .09 17.9l-464 4.71ZM732.88 2231.91a9 9 0 0 1-.06-17.91l459.09-3.13h.07a9 9 0 0 1 .06 17.9l-459.1 3.14ZM735.88 2279.68a9 9 0 0 1 0-17.91l454.24-1.57a9 9 0 0 1 0 17.91l-454.24 1.57ZM1188.27 2327.45H738.89a9 9 0 1 1 0-17.91h449.38a9 9 0 1 1 0 17.91Z" class="colorb6ceff svgShape"/><path fill="#6ce4fe" d="M3716.23 2195.48s-176.36-116.27-218.16-286.09S3549 1592 3549 1592s229.91 89 246.9 288.13-28.74 315.4-28.74 315.4Z" class="color6c90fe svgShape"/><path fill="#41d1f1" d="M3789.39 2195.48s-158.07-163.29-69.24-250.82c0 0-47-40.5-40.5-105.81s67.93-67.93 67.93-67.93-69.23-44.42-32.66-111 84.78-67.92 84.78-67.92-9-58.79 43.25-111 103.2 37.88 87.52 131.94c0 0 67.62 28.74 59.94 112.34s-50.79 84.92-50.79 84.92 79.37 74.46 50.79 158.06-84.76 84.92-84.76 84.92 67.93 80.9-116.26 142.3Z" class="color4153f1 svgShape"/><path fill="#ffffff" d="M3738.44 2196.09a5.76 5.76 0 0 1-5.2-3.28c-115.28-242.18-158.13-499.36-158.55-501.93a5.75 5.75 0 1 1 11.36-1.85c.42 2.55 43 258.18 157.59 498.83a5.76 5.76 0 0 1-5.2 8.23ZM3804.11 2196.09h-.56a5.77 5.77 0 0 1-5.18-6.28l57.14-598.39a5.75 5.75 0 0 1 11.45 1.09l-57.13 598.39a5.75 5.75 0 0 1-5.72 5.19Z" class="colorfff svgShape"/><path fill="#ffffff" d="M3835.43 2180.05h-148.06s-16.83 207.39 69.82 214.58 78.24-149.13 78.24-214.58Z" class="colorfff svgShape"/><path fill="#54daf7" d="M3762.83 2398.54q-2.92 0-5.94-.25c-21.11-1.75-38.08-14.72-50.43-38.53-9.58-18.49-16.42-43.6-20.32-74.66-6.6-52.52-2.48-104.83-2.44-105.35a3.68 3.68 0 0 1 3.66-3.38h148.07a3.67 3.67 0 0 1 3.67 3.68c0 4.91.05 10.38.1 16.17.5 56.56 1.33 151.22-37.68 187.44-10.65 9.89-23.64 14.88-38.69 14.88Zm-72-214.82c-1.64 26.62-9.44 200.93 66.69 207.25 15.67 1.29 28.43-2.86 39-12.69 36.63-34 35.82-126.65 35.33-182 0-4.41-.07-8.63-.09-12.57Z" class="color5487f7 svgShape"/><path fill="#931d47" d="M553.34 2389.3h3451.75v22.2H553.34z" class="color1d2f93 svgShape"/><path fill="#efffe3" d="M2997.85 2503.22h1175.71l-280.21-50s28.09-36.48.65-52.86c0 0 47-52.31-2-96.72s-92.75 5.22-92.75 5.22-2.61-126.06-113-123.45-118.87 75.12-118.87 75.12-130-66.62-207.06 3.27-49.64 115.61-49.64 115.61-47-35.27-88.83 3.26-4.58 65.32-4.58 65.32Z" class="colore3ebff svgShape"/><path fill="url(#c)" d="M1311 782.94V1837a174.93 174.93 0 0 0 175 174.89h1712.06A174.93 174.93 0 0 0 3373 1837V783Z"/><path fill="#30c8ea" d="M3373 777.93A174.93 174.93 0 0 0 3198.06 603H1486a174.93 174.93 0 0 0-175 174.93v5h2062Z" class="color3630ea svgShape"/><rect width="505.69" height="396.82" x="1500.67" y="1465.81" fill="url(#b)" opacity=".62" rx="46.85"/><rect width="505.69" height="396.82" x="2090.98" y="1465.81" fill="url(#d)" opacity=".62" rx="46.85"/><rect width="505.69" height="396.82" x="2681.3" y="1465.81" fill="url(#e)" opacity=".62" rx="46.85"/><rect width="219.44" height="219.44" x="2222.82" y="863.07" fill="#40c5e2" opacity=".52" rx="39.17" class="color405fe2 svgShape"/><path fill="#e8f4df" d="M2243.72 897.4a6.93 6.93 0 0 1 4.84-3.91h1.44l12.94 3.09c3.5.84 7 1.67 10.5 2.55a4.5 4.5 0 0 1 3.47 3.75c1 5.07 1.81 10.15 2.61 15.25a1.41 1.41 0 0 0 1.46 1.37l9.82 1.09 12.78 1.37c5.25.57 10.49 1.16 15.74 1.74q8.13.91 16.28 1.83c4.06.45 8.13.86 12.2 1.31l20.65 2.3c5.81.64 11.62 1.23 17.43 1.87 5.28.58 10.55 1.21 15.82 1.8q7.17.8 14.34 1.54a6 6 0 0 1 5.27 3.58 2.3 2.3 0 0 0 .33.38v2.35a23.54 23.54 0 0 0-.86 2.3q-4.34 15.88-8.64 31.79-3.91 14.37-7.87 28.73c-1.67 6.12-3.32 12.24-5.05 18.34-.8 2.81-2.71 4.06-5.87 4.06h-116.08a5.23 5.23 0 0 1-5.12-2.84 4.7 4.7 0 0 1 1.12-5.76c1.45-1.39 3.39-1.44 5.27-1.44h109.68c1.06 0 1.48-.28 1.7-1.24.46-2.07 1.08-4.11 1.64-6.16l.77-2.89h-103.77c-3.29 0-5.47-1.82-5.92-4.81s-1-6.07-1.53-9.1c-.9-5.16-1.82-10.32-2.71-15.49-.71-4.14-1.37-8.29-2.08-12.43-.8-4.65-1.65-9.3-2.46-14-.74-4.27-1.44-8.55-2.18-12.82-.88-5.08-1.78-10.15-2.65-15.23-.8-4.61-1.57-9.21-2.36-13.86-5.71-1.32-11.34-2.73-17-3.91-2.79-.57-4.89-1.68-5.92-4.21Zm82.91 98c0-2.21.07-4.36 0-6.51-.22-5.41-.51-10.83-.77-16.25q-.53-10.77-1-21.56-.36-7.68-.65-15.35c0-.76 0-1.33-1.11-1.44-5.25-.54-10.49-1.12-15.74-1.67-.13 0-.26.06-.6.15q4.27 31.29 8.56 62.63Zm8.48-59.75c.94 20 1.87 39.8 2.8 59.71h11.76c.95-19.24 1.91-38.4 2.87-57.82Zm36.37 59.83c.87 0 1-.41 1.07-1 .62-4.06 1.27-8.13 1.91-12.19q1.68-10.59 3.35-21.19c1-6.71 2-13.43 3.09-20.32-2.17-.28-4.3-.57-6.44-.8-3.23-.35-6.47-.63-9.7-1-1-.12-1.36.09-1.4 1q-.54 12.87-1.16 25.74-.54 11.49-1.14 23c-.11 2.2-.24 4.39-.38 6.77 3.8-.08 7.32-.1 10.8-.06Zm37.74-51.69-17.36-1.91c-2.8 17.9-5.57 35.65-8.36 53.5h11.64c4.67-17.18 9.35-34.3 14.08-51.64Zm-106.45 40.92c-.44-3.35-.9-6.7-1.36-10-.61-4.38-1.24-8.75-1.85-13.12q-1.07-7.85-2.12-15.7c-.59-4.43-1.21-8.85-1.8-13.27-.13-1-.62-1.45-1.8-1.54-2.91-.21-5.81-.58-8.71-.88l-1.61-.15c.23 1.78.43 3.43.66 5.07q.8 5.52 1.6 11c.5 3.43 1 6.86 1.51 10.29.56 3.8 1.09 7.61 1.64 11.41.47 3.21 1 6.42 1.43 9.63.83 5.65 1.64 11.31 2.52 17 .06.38.56 1 .87 1 3.39.08 6.8 0 10.4 0-.47-3.75-.91-7.27-1.38-10.79ZM2372.46 1056.63c2.34-.62 4.67-1.16 6.57-2.76a9.66 9.66 0 0 0 2.46-12c-2.06-3.91-6.81-6.08-11.51-5.45-5.68.75-9.5 5.1-9.4 10.08.11 5.18 3.91 9 9.53 9.91a3.72 3.72 0 0 1 .64.22ZM2300 1056.63a15.25 15.25 0 0 0 6.75-2.76 9.72 9.72 0 0 0-.26-15.19 12.18 12.18 0 0 0-12.7-1.06 10 10 0 0 0-5.38 10.39c.64 4.1 4.64 7.73 9.24 8.38.32 0 .62.16.93.24Z" class="colordfdff4 svgShape"/><rect width="678.26" height="36.48" x="2494.06" y="893.49" fill="#40c5e2" opacity=".52" rx="18.24" class="color405fe2 svgShape"/><rect width="678.26" height="36.48" x="2494.06" y="1028.23" fill="#40c5e2" opacity=".52" rx="18.24" class="color405fe2 svgShape"/><rect width="219.44" height="219.44" x="2222.82" y="1167.08" fill="#40c5e2" opacity=".52" rx="39.17" class="color405fe2 svgShape"/><path fill="#e8f4df" d="M2243.72 1201.41a6.92 6.92 0 0 1 4.84-3.9h1.44l12.94 3.09c3.5.84 7 1.67 10.5 2.55a4.49 4.49 0 0 1 3.47 3.75c1 5.06 1.81 10.15 2.61 15.24a1.42 1.42 0 0 0 1.46 1.38l9.82 1.09c4.26.46 8.52.9 12.78 1.37 5.25.57 10.49 1.16 15.74 1.74q8.13.91 16.28 1.83c4.06.45 8.13.85 12.2 1.3 6.88.76 13.76 1.55 20.65 2.31 5.81.64 11.62 1.23 17.43 1.87 5.28.58 10.55 1.21 15.82 1.8q7.17.8 14.34 1.54a5.94 5.94 0 0 1 5.27 3.57 2 2 0 0 0 .33.39v2.35a23.54 23.54 0 0 0-.86 2.3q-4.34 15.88-8.64 31.78-3.91 14.38-7.87 28.74c-1.67 6.11-3.32 12.23-5.05 18.33-.8 2.81-2.71 4.07-5.87 4.07h-116.1a5.23 5.23 0 0 1-5.12-2.84 4.7 4.7 0 0 1 1.12-5.76c1.45-1.4 3.39-1.44 5.27-1.45h109.68c1.06 0 1.48-.28 1.7-1.25.46-2.06 1.08-4.1 1.64-6.15l.77-2.89h-103.75c-3.29 0-5.47-1.83-5.92-4.82s-1-6.06-1.53-9.09c-.9-5.17-1.82-10.32-2.71-15.49-.71-4.14-1.37-8.29-2.08-12.43-.8-4.65-1.65-9.3-2.46-14-.74-4.27-1.44-8.55-2.18-12.82-.88-5.08-1.78-10.15-2.65-15.23-.8-4.61-1.57-9.22-2.36-13.86-5.71-1.33-11.34-2.73-17-3.91-2.79-.58-4.89-1.68-5.92-4.21Zm82.91 98c0-2.21.07-4.36 0-6.51-.22-5.42-.51-10.83-.77-16.25q-.53-10.78-1-21.56-.36-7.68-.65-15.35c0-.76 0-1.34-1.11-1.45-5.25-.53-10.49-1.11-15.74-1.67a2.8 2.8 0 0 0-.6.16q4.27 31.29 8.56 62.63Zm8.48-59.75c.94 20 1.87 39.8 2.8 59.71h11.76c.95-19.24 1.91-38.41 2.87-57.82Zm36.37 59.83c.87 0 1-.41 1.07-1 .62-4.07 1.27-8.13 1.91-12.19q1.68-10.59 3.35-21.19c1-6.72 2-13.44 3.09-20.33-2.17-.27-4.3-.56-6.44-.79-3.23-.36-6.47-.64-9.7-1-1-.11-1.36.1-1.4 1q-.54 12.87-1.16 25.73-.54 11.5-1.14 23c-.11 2.2-.24 4.4-.38 6.78 3.8-.07 7.32-.09 10.8-.05Zm37.74-51.7-17.36-1.91c-2.8 17.91-5.57 35.66-8.36 53.51h11.64c4.67-17.17 9.35-34.29 14.08-51.64Zm-106.45 40.93c-.44-3.35-.9-6.7-1.36-10-.61-4.38-1.24-8.75-1.85-13.12q-1.07-7.85-2.12-15.7c-.59-4.43-1.21-8.85-1.8-13.28-.13-1-.62-1.45-1.8-1.53-2.91-.21-5.81-.58-8.71-.88l-1.61-.15c.23 1.78.43 3.42.66 5.06q.8 5.54 1.6 11c.5 3.43 1 6.86 1.51 10.29.56 3.8 1.09 7.61 1.64 11.41.47 3.21 1 6.42 1.43 9.63.83 5.65 1.64 11.31 2.52 17 .06.38.56 1 .87 1 3.39.07 6.8.05 10.4.05-.47-3.78-.91-7.3-1.38-10.82ZM2372.46 1360.65c2.34-.62 4.67-1.17 6.57-2.77a9.64 9.64 0 0 0 2.46-12c-2.06-3.92-6.81-6.08-11.51-5.46-5.68.75-9.5 5.11-9.4 10.09.11 5.18 3.91 9 9.53 9.91a3 3 0 0 1 .64.22ZM2300 1360.65a15.36 15.36 0 0 0 6.75-2.76 9.74 9.74 0 0 0-.26-15.2 12.2 12.2 0 0 0-12.7-1.06 10 10 0 0 0-5.38 10.39c.64 4.11 4.64 7.74 9.24 8.39a7.47 7.47 0 0 1 .93.24Z" class="colordfdff4 svgShape"/><rect width="682.05" height="39.55" x="2494.06" y="1200.61" fill="#40c5e2" opacity=".52" rx="19.04" class="color405fe2 svgShape"/><rect width="678.26" height="36.48" x="2494.06" y="1332.25" fill="#40c5e2" opacity=".52" rx="18.24" class="color405fe2 svgShape"/><path fill="none" stroke="#26d7fe" stroke-miterlimit="10" stroke-width="7" d="M1380.58 782.94v996.28c0 90.88 73 164.56 163.13 164.56H3140.3c90.1 0 163.13-73.68 163.13-164.56V782.94Z" class="colorStroke5290ff svgStroke"/><path fill="#720029" d="M2911.16 1169.89s-27.57-13.79-36.64-37 17.41-21 7.62-52.61-10.89-60.59 22.85-78 89.26-18.14 118.29 28.3c0 0 46.44-21.4 73.29 12.34s-.37 91.07 26.12 116.47 58.41 39.18 55.15 83.45 12.34 67.84 66.4 79.82 60.41 150.93-54.43 168.35-179 6.87-188.3-68.68-1.09-54.32-15.24-112.55-38.64-119.21-75.11-139.89Z" class="color001b72 svgShape"/><g clip-path="url(#f)" fill="#000000" class="color000 svgShape"><path fill="#510500" d="M2868.85 1094.87c1.31.44 19.6 24 37.45 9.14s17.42-4.35 40.94-6.09 76.2-19.8 82.73 12.09-31.35 54.68 27.43 92.42-9.75 45.17 19.73 80.72 157.94 225 212.37 130l-32.22 94.93-60.1-9.86s-107.42 25.2-107.66 26.39-145.77-49.19-145.77-49.19 33.53-153.28 34-162.42-20.47-103.64-20.47-111.48-20.9-46.15-20.9-46.15l-46.38 36.5-39.19-55.31Z" class="color001751 svgShape"/><path fill="#1a9dba" d="M2877.35 1060.72s-3.27-34.65 25.91-46.84 60.52-17 86.65-2.62 31.35 31.79 31.35 31.79 32.17-22 75.31-.15l13.09-22.49L2905 977.73l-46.16 39.63 18.51 43.36" class="color1a50ba svgShape"/></g><path fill="#fdb2cd" d="M2917.15 1110s-38.1 118.64 0 123.54 30.54 16.64 23.3 36.8c-6.09 17-40.76 15.36-40.76 15.36l-4.85 31.65 18.77 32.39 67.49 10.34 32.05-64.39s-25.52-11.26-20.9-47.45 9-36.47 20.14-40.82 18.23-29.66 7.89-38.64-5.71-49.26-5.71-49.26-11.43-9.52-44.36 0-53.06-9.52-53.06-9.52Z" class="colorfdb2d0 svgShape"/><g clip-path="url(#g)" fill="#000000" class="color000 svgShape"><path fill="#d45985" d="M2909.13 1114.46c.22.88-6.31 20.47 36.8 15.25s48.12.21 52.47 19.37 36.14 12 36.14 12l-3.26-56.17-120-7ZM2928.51 1253.37 2934 1237s35-8 43.31-6.72-37.45 25.7-37.45 25.7Z" class="colorf476af svgShape"/></g><path fill="#fdb2cd" d="M2871.55 1287.23s-18.66 7-33.48 14.53-108.16 55.62-128.56 54.78-138.51-105.46-157.16-119.25-126.33-41.36-131.55 0 93.17 13.79 113.66 39.5 128.19 142.35 167.69 140.12 151.3-49.19 151.3-49.19Z" class="colorfdb2d0 svgShape"/><path fill="#d45985" d="M2552.28 1302.58c.44 1.31 101.27 82.73 129 91s54.31-3.88 97.42-14.37 82.7-47 82.7-47l-5.63 49.58-95.36 25.69-56.61 21.34-92.75-42.34-56.61-45.62Z" clip-path="url(#h)" class="colorf476af svgShape"/><path fill="#fc3023" d="M2843.81 2405.78c-30.4 12.89-55.81 2.38-68.64-5.38a26.2 26.2 0 0 1-6.58 9c-18.43 15.64-102.23 31.28-103.9 51.95s45.81 25.14 105 19.55 91.43 7.63 81-30.72c-3.5-12.9-5.62-28.89-6.88-44.4Z" class="colorfcaa23 svgShape"/><path fill="#fdb2cd" d="M2843.81 2405.78c-2.48-30.47-1.67-59.1-1.67-59.1s-19.73-21.6-62.93-4.28c0 0 5.66 37.28-4 58 12.79 7.76 38.2 18.27 68.6 5.38Z" class="colorfdb2d0 svgShape"/><path fill="#fc3023" d="M3417 2029.11c6.29 32.42-9.27 55.09-19.53 66a26.19 26.19 0 0 1 7.48 8.31c11.47 21.28 9.36 106.49 29.23 112.43s34.11-39.59 40.94-98.67 26.47-87.85-13.22-85.61c-13.42.78-29.49-.47-44.9-2.46Z" class="colorfcaa23 svgShape"/><path fill="#fdb2cd" d="M3417 2029.11c-30.32-3.9-58.15-10.64-58.15-10.64s-25.23 14.82-17.27 60.67c0 0 37.64 2.2 55.89 16 10.23-10.94 25.79-33.61 19.53-66.03Z" class="colorfdb2d0 svgShape"/><path fill="#12b4d8" d="M2927.86 1654.75c26.12 0 93.47-30 105.52-11.76s51.89 48 58.42 136.84 7.84 189.42 7.84 189.42l273.36 46-7.84 72.5s-190.08-7.83-242-5.87-107.78-8.82-128.35-63.69c-31.12-83-44.78-160.68-44.78-160.68l-84.74 158.72s7.05 96-4.71 197.91-10.78 142.07-10.78 142.07h-77.4s-6.06-253.76-10-332.14 54.59-268.69 78.57-361Z" class="color122fd8 svgShape"/><g clip-path="url(#i)" fill="#000000" class="color000 svgShape"><path fill="#05829e" d="M2818.78 2373.76c.65-1.5 28.08-157.61 11.75-246.44s-2.61-158.72 39.85-224-1.31-105.16 30-115 49.58-34.61 49.61 50.3 4.61 120.84 4.61 120.84L2923.29 2428ZM2923.94 1664.22s23.51 75.77 72.5 79.69 39.85 18.94 52.91 104.51-20.13 151.9 60.33 163.47 287.76 19.89 287.76 19.89l-18.23-91.63-304-320.35-67-21.55Z" class="color052a9e svgShape"/></g><path fill="#fdb2cd" d="m2874.52 1545.56-7.86 12.38s.45 8.52-9.56 46.84-16.11 58.35-16.11 58.35 88.32 32.12 192.39-20.14l-11.74-82.27Z" class="colorfdb2d0 svgShape"/><path fill="#d45985" d="M2883.66 1685.08s22.62-81.18 80.12-109 96.67-20.9 95.37 18.73-88.84 98.41-88.84 98.41l-67.93 55.74Z" clip-path="url(#j)" class="colorf476af svgShape"/><path fill="#ffffff" d="M2938.92 1338.46c40.3 6.58 60.54-31.87 71.87-47.27 20.35 5.23 51.73 18.59 51.73 18.59s6.58 40.69-9.69 86-35.06 121.46-31 167.37c0 0-58.7 52.31-155.18-5.23 0 0 1.75-74.19-3.68-98.6s-37.19-33.71-23.24-81 25.57-92.21 32-93.57 29.83-3.87 31.58 2.52 2.69 45.8 35.61 51.19Z" class="colorfff svgShape"/><g clip-path="url(#k)" fill="#000000" class="color000 svgShape"><path fill="#e4ffcf" d="M2897.59 1585s91-12.83 86.66-60.29-155.89-55.3-81.43-67.06 78.38-54.43 112.35-112.78 87.09-50.51 88-49.21-58.35 264.76-58.35 264.76l-32.66 34.83-114.53-2.39Z" class="colorcfdfff svgShape"/></g><path fill="#fdb2cd" d="M3061.23 1309.91s-28.34 4.93-28.95 45 61 105.94 67.14 123.19 25.25 34.49-33.58 67.14-125.34 60.37-138.28 81.92-56.67 102.87-15.4 97.33 50.51-81.93 50.51-81.93 69.61-25.87 125-50.51 92.71-39.42 82.54-76.38-79.42-192.21-108.98-205.76Z" class="colorfdb2d0 svgShape"/><path fill="#d45985" d="M3048.91 1314.12s-17.63 25.47-2.17 57.26 58.27 91.21 62.94 112.35 3.11 43.81-38.95 58.7-15.07-100.51-15.07-100.51l-33.31-86.87 22.92-43.71Z" clip-path="url(#l)" class="colorf476af svgShape"/><path fill="#a31007" d="M3158.86 1764.48v-39.75l-46.15 25.93 15.67 23.95 11.76 10.12 18.72-20.25z" class="colora34a07 svgShape"/><path fill="url(#m)" d="M3112.71 1750.66s32.22 23.51 32.66 20.46 13.49-46.39 13.49-46.39l126.94 271.94s-43.11 46.58-94.06 32.44Z"/><path fill="#d30d00" d="m3159.74 1742.6-.88-17.87s64.47-3 122.81-60.51c0 0 221 169.83 215.1 199.87s-163.64 136.62-211 132.58l-61.4-109.06Z" class="colord37d00 svgShape"/><path d="M3147.59 1733a1.92 1.92 0 0 1-1.8-1.24l-53.34-141.94a1.92 1.92 0 1 1 3.59-1.35l53.34 141.94a1.91 1.91 0 0 1-1.12 2.47 2 2 0 0 1-.67.12ZM3285.8 1681.16a1.91 1.91 0 0 1-1.58-.83c-.87-1.26-87.51-126.68-123.36-150.15-28.71-18.8-50-25.67-61.59-19.89-6.44 3.21-10.08 10.6-10.82 22a1.91 1.91 0 1 1-3.82-.24c.83-12.82 5.18-21.28 12.93-25.15 13.05-6.52 35.06.25 65.4 20.12 36.48 23.88 120.84 146 124.42 151.19a1.91 1.91 0 0 1-.49 2.66 1.94 1.94 0 0 1-1.09.29ZM3183.58 1733.09a1.9 1.9 0 0 1-1.57-.81C3147.32 1683 3110.17 1583 3109.8 1582a1.92 1.92 0 1 1 3.6-1.33c.37 1 37.35 100.49 71.75 149.36a1.92 1.92 0 0 1-.47 2.67 1.89 1.89 0 0 1-1.1.39Z" fill="#000000" class="color000 svgShape"/><path d="M3267.51 1685.08a1.91 1.91 0 0 1-1.45-.66c-.94-1.08-94.93-108.66-117.18-131.87-17.35-18.1-43.72-34.87-58.42-30.31-6.1 1.89-9.94 7.48-11.43 16.61a1.92 1.92 0 0 1-3.79-.62c1.74-10.68 6.48-17.3 14.09-19.66 18.26-5.66 47.28 15.62 62.32 31.32 22.31 23.28 116.36 130.93 117.3 132a1.92 1.92 0 0 1-.18 2.71 1.88 1.88 0 0 1-1.26.48Z" fill="#000000" class="color000 svgShape"/><path fill="#92ebff" d="m2001.82 2123.2-14.37-10.45-15 9.79-28.09-9.14-24.49 352.39s19.92-33.64 67.6.65l43.74-173.44Z" class="color92bcff svgShape"/><path fill="#0b98b7" d="M2061.75 2115.35a6.39 6.39 0 0 1-6.26-5.12c-.25-1.26-6.07-31.38 8.09-70.92 7.87-22 26.23-37.81 47.91-41.26 18.74-3 36.18 4 47.86 19 24.87 32.1 28.2 82.81 28.33 85a6.4 6.4 0 1 1-12.77.77c0-.48-3.24-49-25.67-77.9a36.82 36.82 0 0 0-35.74-14.24c-17.06 2.72-31.58 15.34-37.88 33-12.88 36-7.64 63.81-7.59 64.09a6.39 6.39 0 0 1-5 7.51 6.8 6.8 0 0 1-1.28.07Z" class="color0b45b7 svgShape"/><path fill="#efffe3" d="M1987.45 2112.75v353.69h301.77l-31.74-358.59s-96.61-27.43-270.03 4.9Z" class="colore3ebff svgShape"/><g clip-path="url(#n)" fill="#000000" class="color000 svgShape"><path fill="#c0f4ff" d="m2041.06 2491.36 54.33-362.3 201.04 1.31 102.68 372.85-358.05-11.86z" class="colorc0d5ff svgShape"/></g><path fill="#92ebff" d="m2177.36 2160-14.36-10.47-15 9.8-28.09-9.15-24.49 352.39s19.92-33.64 67.6.65l43.76-173.41Z" class="color92bcff svgShape"/><path fill="#0b98b7" d="M2237.29 2152.14a6.39 6.39 0 0 1-6.29-5.14c-.25-1.26-6.07-31.37 8.09-70.91 7.88-22 26.23-37.82 47.91-41.27 18.74-3 36.18 4 47.86 19 24.87 32.11 28.2 82.82 28.33 85a6.4 6.4 0 1 1-12.77.77c0-.48-3.24-48.94-25.67-77.9a36.82 36.82 0 0 0-35.74-14.24c-17.06 2.72-31.58 15.34-37.88 32.95-12.88 36-7.64 63.81-7.59 64.09a6.39 6.39 0 0 1-5 7.51 6 6 0 0 1-1.25.14Z" class="color0b45b7 svgShape"/><path fill="#efffe3" d="M2163 2149.53v353.69h301.77L2433 2144.63s-96.59-27.43-270 4.9Z" class="colore3ebff svgShape"/><path fill="#12b4d8" d="M1009 954.55c6.69-28.89 27.45-46.34 40.8-54.86-12.8-7.85-32.53-11.79-57.94 8-47.19 36.74-28.9 97.49 5.71 102.39 4.68.66 8.76 1 12.37 1.18a119.43 119.43 0 0 1-.94-56.71Z" class="color122fd8 svgShape"/><g clip-path="url(#o)" fill="#000000" class="color000 svgShape"><path fill="#2eccef" d="M975.88 1008.22c0-7-13.72-48.2 4.14-73.74s65.53-46.67 65.53-46.67l-98.63 16.55 4.58 60.09Z" class="color2e53ef svgShape"/></g><path fill="url(#p)" d="M1049.77 899.69c-13.35 8.52-34.11 26-40.8 54.86a119.43 119.43 0 0 0 .94 56.7c23.14 1 25.84-7.14 25.84-7.14l30.87-88.1a55.58 55.58 0 0 0-16.85-16.32Z"/><path fill="#12b4d8" d="M1242.48 1009.41s26.78-6.2 15.35-55.84-57.8-73.16-115.28-70.87-131.62 38.21-115.94 124.1 46.38 114.63 102.55 118.88Z" class="color122fd8 svgShape"/><g clip-path="url(#q)" fill="#000000" class="color000 svgShape"><path fill="#089ebf" d="M1024.48 1058.29s31.31 21 34.35-5.16 3.48-66.25 31.13-65 66-15.25 69.46-35.93 33.06-30.26 57.46-15.67 38.34-22.42 38.34-22.42L1277 986s-33.53 94-34.83 94.49-128.39 65.75-128.39 65.75l-98-81.86Z" class="color082bbf svgShape"/></g><path fill="#fdb2cd" d="M1241.5 973.16s24.17 103.2-13.06 134.56-50.29 0-49.64 24.16 13.06 56.83 13.06 56.83-37.23 28.09-67.93 0c0 0 11.76-31.35 3.6-56.17s13.71-49.32-13.39-64.34c0 0-40.5-36.58-16.66-56.5 0 0 86.87-8.49 93.73-55.85 0 0 26.45 19.92 50.29 17.31Z" class="colorfdb2d0 svgShape"/><g clip-path="url(#r)" fill="#000000" class="color000 svgShape"><path fill="#d45985" d="M1120.23 993.41c8.49 4.79 25.69 17.2 23.3 39.84s-10.67 28.09-7.84 35.6 15 18 31.35 14.7 17.25-10 27.57-7.4 7.24 16.63-10.93 17.89-30.35 2.79-45.16-1.35-26.34-37.45-26.34-37.45l-10.45-37.24ZM1183.92 1125.68c-.77-2.94-27.33-20.14-35.6-14s33 34.19 33 34.19Z" class="colorf476af svgShape"/></g><circle cx="1102.71" cy="1035.87" r="32.99" fill="#6b0026" class="color001c6b svgShape"/><path fill="#6b0026" d="M1158.88 1098.13a88.79 88.79 0 0 1-13-1c-25.51-3.78-31.82-38.8-32.08-40.28a3.2 3.2 0 1 1 6.31-1.09c.06.33 5.79 32 26.71 35 22.12 3.27 36.52-3.56 36.66-3.63a3.2 3.2 0 0 1 2.82 5.74c-.51.34-10.75 5.26-27.42 5.26Z" class="color001c6b svgShape"/><ellipse cx="1201.88" cy="1087.25" fill="#6b0026" rx="19.6" ry="12.85" transform="rotate(-13.84 1201.46 1086.952)" class="color001c6b svgShape"/><path fill="#fdb2cd" d="M1301.33 1362.72s19.27 46.59 33.73 42.57 98-100.79 112.44-124.49 37.75-41.36 62.65-50.6 82.32-22.48 66.26 10-93.17 59.84-93.17 59.84-58.63 91.56-96.38 143-66.83 45.18-92 16.46c-28.11-32.12-43.37-71.08-43.37-71.08Z" class="colorfdb2d0 svgShape"/><path fill="#d45985" d="M1308.35 1409.26s-.87 60.1 53.12 20.47 119.15-125.57 119.15-125.57l3.21 85.07s-128.45 149.36-132.83 141.09-55.63-39.63-55.63-39.63l-19.27-55.3Z" clip-path="url(#s)" class="colorf476af svgShape"/><path fill="#e9ffd7" d="M1244.77 1196.87c4.42-3.1 5.88-10.77 24.82 16.33s64.88 136.8 64.88 136.8-10 50.59-91.44 44.92l-4.36-167.21Z" class="colorfff0d7 svgShape"/><path fill="#089bbc" d="M1292.53 2434.92c-10.83 7.92-25.61 8.68-41.35 5.59-29.8-5.85-63-25.4-79.16-35.84-7.63 36.19 9.06 83.21 9.06 83.21l21.66 2.8s-.37-19.2 4-37.73 16.45 20.42 31.51 33.36 94 21.69 107.66 2.74c8.18-11.32-23.42-31.56-53.38-54.13Z" class="color082bbc svgShape"/><path fill="#d45985" d="M1292.53 2434.92c-20.22-15.23-39.68-31.52-45.66-46.83-14.82-38-5.83-282.79-1.37-354.18s12.12-137.68 12.12-137.68l-107.46.61s16.62 142.06 8.15 215.22 31.33 245 16.89 281.8a67.13 67.13 0 0 0-3.18 10.81c16.18 10.44 49.36 30 79.16 35.84 15.74 3.09 30.52 2.33 41.35-5.59Z" class="colorf476af svgShape"/><path fill="#fdb2cd" d="M1202.06 2454.3c-21.33-15.91-42.56-33.1-48.85-49.22-14.82-38-5.83-282.79-1.37-354.18s5.77-118.41 5.77-118.41l-101.11-18.66s16.62 142.06 8.15 215.22 31.33 245 16.89 281.8a69.15 69.15 0 0 0-3.45 12.16c15 9.87 50.25 31.35 81.75 37.53 16.16 3.18 31.31 2.29 42.22-6.24Z" class="colorfdb2d0 svgShape"/><path fill="#12b4d8" d="M1202.06 2454.3c-10.91 8.53-26.06 9.42-42.22 6.24-31.5-6.18-66.77-27.66-81.75-37.53-6.94 36 9.33 81.86 9.33 81.86l21.67 2.8s-.38-19.2 4-37.73 16.45 20.42 31.51 33.36 94 21.69 107.66 2.74c7.89-10.92-21.26-30.14-50.2-51.74Z" class="color122fd8 svgShape"/><path fill="url(#a)" d="m1091.27 1503.54-9.14 9.8s-1 12.08-15.68 38.86-48.33 81.32-52.25 133.58 34 243.63 34 243.63 109.08 61.4 208.36-5.23c0 0 20.25-116.26 26.78-203.79s-31.14-221.86-31.14-221.86Z"/><g clip-path="url(#t)" fill="#000000" class="color000 svgShape"><path fill="#db0d00" d="M1146.14 1976.44c5.88-10.45 58-51.6 60.34-123.45s-94.3-152.19-52.5-160.68 73.16-95.14 45.72-146.85 147 0 147 0l-42.46 409.75s-51.38 5.55-65.54 4.25-92.56 16.98-92.56 16.98Z" opacity=".49" class="colordb6800 svgShape"/></g><path fill="#ffffff" d="M1152.89 1173.69c13.83 1.9 31.66-8 31.66-8s-1.18 12.92 37 17.5 34.29 23.84 38.21 48.66 39.85 68.58 36.58 109.73-41.15 87.53-41.15 160.68c0 0-44.41 64-173.09 11.11 0 0-20.25-99.29-27.43-135.21s-49.64-161.84-15-176.94 84.47-10.5 87.53-32.08c0-.03 13.8 2.91 25.69 4.55Z" class="colorfff svgShape"/><path fill="#e9ffd7" d="M1038.8 1193.46s44.42 17.67 58.79 73.41-3.92 112.18-1.74 131.21 88.39-28.44 88.39-28.44l28.31 87.52-53.13 86.22-87.07-2.6s-24.4-110.61-25.27-111.92-5.66-55.74-6.1-71.41-29.67-132.09-28.74-133.82 26.56-30.17 26.56-30.17Z" clip-path="url(#u)" class="colorfff0d7 svgShape"/><path fill="url(#v)" d="m1159.22 1212.63 36.22-19.88a8.87 8.87 0 0 1 13.12 8.51c-.89 10.48-1.75 23.45-2.28 31.86a5.42 5.42 0 0 1-8.12 4.35l-79.67-45.9a8.87 8.87 0 0 0-13.26 8.5l2.94 32.46a8.87 8.87 0 0 0 14 6.43l36.2-25.78a7.94 7.94 0 0 1 .85-.55Z"/><path fill="#007f9b" d="m1184.9 1266.44 188.55-4.57-45.07 280.21-171.49 7.18 28.01-282.82z" class="color00299b svgShape"/><path fill="#fdb2cd" d="M1045 1390.54c0 1.31-20.57 78.38-7.84 72.83s110.39-46.58 125.74-68 46.27-50.2 81.43-46.93 44 36.25-1.74 54.87-56.83 19.24-81.32 41S1024.75 1549 990.79 1545.4s-20.36-91.12-16.88-119.53 11.33-57.48 11.33-57.48Z" class="colorfdb2d0 svgShape"/><path fill="#ffffff" d="M1058.83 1240.62c14.86 40.32 7 150.79 7 150.79s-69.67 24.82-97.54-21.34c0 0 18.72-74.46 34-121.49s28.3-44.19 34-40.44 17.21 18 22.54 32.48Z" class="colorfff svgShape"/><g clip-path="url(#w)" fill="#000000" class="color000 svgShape"><path fill="#e9ffd7" d="M1061 1277.32s-15.24 126.28-47.25 128.24l51.17 1.31s-1.31-30.7-1.31-34-2.61-95.55-2.61-95.55Z" class="colorfff0d7 svgShape"/><path fill="url(#x)" d="M1046.86 1212.44s11.32 30.7 12.63 46.81-.78 138.83-.78 138.83l14.49-5.14 3.92-109.52Z"/></g><path d="M1676.78 2461.9c-19.55 0-34.29-7.29-34.29-17s14.74-17 34.29-17 34.28 7.3 34.28 17-14.74 17-34.28 17Zm0-27.89c-16.17 0-28.25 5.77-28.25 10.93s12.08 10.93 28.25 10.93 28.24-5.77 28.24-10.93-12.08-10.94-28.24-10.94ZM1744.59 2473.64c-10.53 0-21.19-3.82-21.19-11.12s10.66-11.12 21.19-11.12 21.18 3.82 21.18 11.12-10.65 11.12-21.18 11.12Zm0-16.21c-10 0-15.15 3.57-15.15 5.09s5.15 5.09 15.15 5.09 15.15-3.57 15.15-5.09-5.16-5.09-15.15-5.09Z" fill="#000000" class="color000 svgShape"/><rect width="625.09" height="70.54" x="1582.97" y="657.7" fill="#ffffff" rx="22.36" class="colorfff svgShape"/><circle cx="2252.28" cy="676.84" r="29.39" fill="#ffffff" class="colorfff svgShape"/><path fill="#ffffff" d="m2260.06 698.98 25.47 47.68 10.02-5.66-26.57-46.16-8.92 4.14z" class="colorfff svgShape"/><path fill="#9ae45f" d="M2560.77 668.73h398.76v48.99h-398.76z" class="colorffe2b8 svgShape"/><circle cx="3073.19" cy="693.22" r="47.33" fill="#ffffff" class="colorfff svgShape"/><circle cx="3073.02" cy="674.58" r="13.8" fill="#62d4ed" opacity=".71" class="color6283ed svgShape"/><path fill="#62d4ed" d="M3061.69 686.24s3.7 3.3 7 4.37a13.31 13.31 0 0 0 10.06-.68 45.53 45.53 0 0 0 5.57-3.69 8.59 8.59 0 0 1 5.56 2c2.73 2.22 4.49 6.74 5.17 12.48s1.39 18.74-.7 21.49-4.31 3.44-10.52 3.44h-25.57a7.85 7.85 0 0 1-7.29-6.9c-.71-5.36-.11-19.44 1.08-23.26s3.58-9.25 9.64-9.25Z" opacity=".71" class="color6283ed svgShape"/><rect width="645.73" height="523.45" x="1490.52" y="863.07" fill="#ffffff" rx="61.44" class="colorfff svgShape"/><path fill="#30c8ea" d="m1608 1001.7 30.7 71.64 51.47-18.42V1259s95.91 33.63 227.49-1.17v-203.49l57.39 20 31.36-72.59s-46.06-32-56.36-38.38-22.59-20.5-46.17-23.24-44.08-6.14-48.68-5.49-25.55 12.58-52.31 12.58-41.23-13.47-51.46-12.66-39.19 3.3-52.05 5.93-33.38 18.37-91.38 61.21Z" class="color3630ea svgShape"/><path fill="#dd0d00" d="m1721.64 1273.11-4.54-8.64s.8-7.75 16.39-2 86.59 35 94.48 42.17-9.72 19.6-30.75 13.3-75.58-44.83-75.58-44.83Z" class="colordd6900 svgShape"/><path fill="url(#y)" d="M1828 1304.61c-10.8 6.83-24.78 6.24-39.32 1.84-28.33-8.58-58.71-31.55-71.55-42-9.69 32.4 1 76 1 76l19.62 4.57a159.33 159.33 0 0 1 7.16-34.25c5.74-16.6 13.21 20.25 25.84 33.52s84.24 28.57 98.53 12.44c8.22-9.3-16.73-29.62-41.28-52.12Z"/><path fill="#dd0d00" d="m1637.39 1214.54.58-9.74s4.69-6.22 15.08 6.73 56 74.71 59.1 84.93-18.44 11.75-33.2-4.52-41.56-77.4-41.56-77.4Z" class="colordd6900 svgShape"/><path fill="url(#z)" d="M1712.15 1296.46c-12.77.26-24.44-7.47-34.61-18.75-19.82-22-34-57.34-39.57-72.91-25 22.73-38.38 65.57-38.38 65.57l14.43 14.05a159.2 159.2 0 0 1 23.84-25.63c13.49-11.24.84 24.17 4.8 42s57.35 68 77.93 61.57c11.85-3.65.98-33.95-8.44-65.9Z"/><rect width="106.93" height="94.25" x="2011.06" y="1273.63" fill="#71fc03" rx="17.54" class="colorfccd03 svgShape"/><path fill="#ffffff" d="M2063.23 1300.43c4.72-8.48 14.93-9.56 21.41-6.88a18.71 18.71 0 0 1 11.27 20.4c-1.11 7.09-4.7 12.9-9.28 18.19-6.39 7.38-14.18 13-22.49 18a1.93 1.93 0 0 1-1.61.07c-10.34-6.27-20-13.37-26.8-23.62-3.54-5.32-5.62-11.08-5.24-17.63.6-10.14 10.76-18.24 20.77-16.59 5.25.92 9.35 3.31 11.97 8.06Z" class="colorfff svgShape"/><circle cx="3840.39" cy="1064.52" r="266.46" fill="#7be7ff" class="color7bbdff svgShape"/><circle cx="3840.39" cy="1064.52" r="244.21" fill="#eaffda" class="colordaebff svgShape"/><path fill="#058ba9" d="M3840.39 1072.17a7.66 7.66 0 0 1-5.14-2l-132.52-120.51a7.64 7.64 0 0 1 10.27-11.31l127.48 115.94 98.06-85.7a7.64 7.64 0 0 1 10.06 11.51l-103.19 90.18a7.63 7.63 0 0 1-5.02 1.89ZM3832.06 1251.39h16v42.01h-16zM3832.06 835.65h16v42.01h-16z" class="color054aa9 svgShape"/><path fill="#058ba9" d="M3624.19 1043.52h16v42.01h-16z" transform="rotate(90 3632.195 1064.525)" class="color054aa9 svgShape"/><path fill="#058ba9" d="M4039.93 1043.52h16v42.01h-16z" transform="rotate(90 4047.93 1064.52)" class="color054aa9 svgShape"/><path fill="none" stroke="#d85b53" stroke-linecap="round" stroke-linejoin="round" stroke-width="2" d="m3840.39 1069.36 64.68 194.53" class="colorStrokede4d30 svgStroke"/><circle cx="3840.39" cy="1064.52" r="28.17" fill="#7be7ff" class="color7bbdff svgShape"/><circle cx="3840.39" cy="1064.52" r="16.59" fill="#ff0f00" class="colorffab00 svgShape"/></svg>